{
    "asset" : {
        "generator" : "Khronos glTF Blender I/O v1.7.33",
        "version" : "2.0"
    },
    "scene" : 0,
    "scenes" : [
        {
            "name" : "Scene",
            "nodes" : [
                0
            ]
        }
    ],
    "nodes" : [
        {
            "mesh" : 0,
            "name" : "Cube",
            "translation" : [
                1.4298675060272217,
                1,
                -3.189032554626465
            ]
        }
    ],
    "materials" : [
        {
            "doubleSided" : true,
            "name" : "Room",
            "pbrMetallicRoughness" : {
                "baseColorTexture" : {
                    "index" : 0
                },
                "metallicFactor" : 0,
                "roughnessFactor" : 0.5
            }
        }
    ],
    "meshes" : [
        {
            "name" : "Cube.001",
            "primitives" : [
                {
                    "attributes" : {
                        "POSITION" : 0,
                        "NORMAL" : 1,
                        "TEXCOORD_0" : 2
                    },
                    "indices" : 3,
                    "material" : 0
                }
            ]
        }
    ],
    "textures" : [
        {
            "sampler" : 0,
            "source" : 0
        }
    ],
    "images" : [
        {
            "bufferView" : 4,
            "mimeType" : "image/jpeg",
            "name" : "Anderson_Sala nera_inizi XX secolo_lato polittico"
        }
    ],
    "accessors" : [
        {
            "bufferView" : 0,
            "componentType" : 5126,
            "count" : 6563,
            "max" : [
                1.540597915649414,
                7.751713752746582,
                7.840060234069824
            ],
            "min" : [
                -8.331380844116211,
                -1,
                -1
            ],
            "type" : "VEC3"
        },
        {
            "bufferView" : 1,
            "componentType" : 5126,
            "count" : 6563,
            "type" : "VEC3"
        },
        {
            "bufferView" : 2,
            "componentType" : 5126,
            "count" : 6563,
            "type" : "VEC2"
        },
        {
            "bufferView" : 3,
            "componentType" : 5123,
            "count" : 28830,
            "type" : "SCALAR"
        }
    ],
    "bufferViews" : [
        {
            "buffer" : 0,
            "byteLength" : 78756,
            "byteOffset" : 0
        },
        {
            "buffer" : 0,
            "byteLength" : 78756,
            "byteOffset" : 78756
        },
        {
            "buffer" : 0,
            "byteLength" : 52504,
            "byteOffset" : 157512
        },
        {
            "buffer" : 0,
            "byteLength" : 57660,
            "byteOffset" : 210016
        },
        {
            "buffer" : 0,
            "byteLength" : 1613054,
            "byteOffset" : 267676
        }
    ],
    "samplers" : [
        {
            "magFilter" : 9729,
            "minFilter" : 9987
        }
    ],
    "buffers" : [
        {
            "byteLength" : 1880732,
            "uri" : "data:application/octet-stream;base64,"
        }
    ]
}
